<mxfile host="app.diagrams.net" agent="Mozilla/5.0 (Windows NT 10.0; Win64; x64) AppleWebKit/537.36 (KHTML, like Gecko) Chrome/127.0.0.0 Safari/537.36" version="24.7.7">
  <diagram name="Page-1" id="adkuUW6q_Gg4xZ-kh2uc">
    <mxGraphModel dx="1615" dy="815" grid="1" gridSize="10" guides="1" tooltips="1" connect="1" arrows="1" fold="1" page="1" pageScale="1" pageWidth="827" pageHeight="1169" math="0" shadow="0">
      <root>
        <mxCell id="0" />
        <mxCell id="1" parent="0" />
        <mxCell id="mQDXAv2by1Fk_RU90ocm-1" value="&lt;font style=&quot;font-size: 19px;&quot;&gt;&lt;b&gt;Training Set&lt;/b&gt;&lt;/font&gt;" style="rounded=0;whiteSpace=wrap;html=1;" vertex="1" parent="1">
          <mxGeometry x="200" y="90" width="400" height="40" as="geometry" />
        </mxCell>
        <mxCell id="mQDXAv2by1Fk_RU90ocm-2" value="&lt;font style=&quot;font-size: 19px;&quot;&gt;&lt;b&gt;Model&lt;/b&gt;&lt;/font&gt;" style="rounded=0;whiteSpace=wrap;html=1;" vertex="1" parent="1">
          <mxGeometry x="331" y="178" width="180" height="40" as="geometry" />
        </mxCell>
        <mxCell id="mQDXAv2by1Fk_RU90ocm-3" value="&lt;font style=&quot;font-size: 19px;&quot;&gt;&lt;b&gt;Grid Search&lt;/b&gt;&lt;/font&gt;" style="rounded=0;whiteSpace=wrap;html=1;" vertex="1" parent="1">
          <mxGeometry x="850" y="178" width="180" height="40" as="geometry" />
        </mxCell>
        <mxCell id="mQDXAv2by1Fk_RU90ocm-4" value="" style="rounded=0;whiteSpace=wrap;html=1;" vertex="1" parent="1">
          <mxGeometry x="201" y="337" width="400" height="40" as="geometry" />
        </mxCell>
        <mxCell id="mQDXAv2by1Fk_RU90ocm-10" value="" style="endArrow=none;html=1;rounded=0;" edge="1" parent="1">
          <mxGeometry width="50" height="50" relative="1" as="geometry">
            <mxPoint x="281" y="377" as="sourcePoint" />
            <mxPoint x="281" y="337" as="targetPoint" />
          </mxGeometry>
        </mxCell>
        <mxCell id="mQDXAv2by1Fk_RU90ocm-11" value="" style="endArrow=none;html=1;rounded=0;" edge="1" parent="1">
          <mxGeometry width="50" height="50" relative="1" as="geometry">
            <mxPoint x="361" y="377" as="sourcePoint" />
            <mxPoint x="361" y="337" as="targetPoint" />
          </mxGeometry>
        </mxCell>
        <mxCell id="mQDXAv2by1Fk_RU90ocm-12" value="" style="endArrow=none;html=1;rounded=0;" edge="1" parent="1">
          <mxGeometry width="50" height="50" relative="1" as="geometry">
            <mxPoint x="441" y="377" as="sourcePoint" />
            <mxPoint x="441" y="337" as="targetPoint" />
          </mxGeometry>
        </mxCell>
        <mxCell id="mQDXAv2by1Fk_RU90ocm-13" value="" style="endArrow=none;html=1;rounded=0;" edge="1" parent="1">
          <mxGeometry width="50" height="50" relative="1" as="geometry">
            <mxPoint x="521" y="377" as="sourcePoint" />
            <mxPoint x="521" y="337" as="targetPoint" />
          </mxGeometry>
        </mxCell>
        <mxCell id="mQDXAv2by1Fk_RU90ocm-14" value="" style="rounded=0;whiteSpace=wrap;html=1;" vertex="1" parent="1">
          <mxGeometry x="201" y="397" width="400" height="40" as="geometry" />
        </mxCell>
        <mxCell id="mQDXAv2by1Fk_RU90ocm-15" value="" style="endArrow=none;html=1;rounded=0;" edge="1" parent="1">
          <mxGeometry width="50" height="50" relative="1" as="geometry">
            <mxPoint x="281" y="437" as="sourcePoint" />
            <mxPoint x="281" y="397" as="targetPoint" />
          </mxGeometry>
        </mxCell>
        <mxCell id="mQDXAv2by1Fk_RU90ocm-16" value="" style="endArrow=none;html=1;rounded=0;" edge="1" parent="1">
          <mxGeometry width="50" height="50" relative="1" as="geometry">
            <mxPoint x="361" y="437" as="sourcePoint" />
            <mxPoint x="361" y="397" as="targetPoint" />
          </mxGeometry>
        </mxCell>
        <mxCell id="mQDXAv2by1Fk_RU90ocm-17" value="" style="endArrow=none;html=1;rounded=0;" edge="1" parent="1">
          <mxGeometry width="50" height="50" relative="1" as="geometry">
            <mxPoint x="441" y="437" as="sourcePoint" />
            <mxPoint x="441" y="397" as="targetPoint" />
          </mxGeometry>
        </mxCell>
        <mxCell id="mQDXAv2by1Fk_RU90ocm-18" value="" style="endArrow=none;html=1;rounded=0;" edge="1" parent="1">
          <mxGeometry width="50" height="50" relative="1" as="geometry">
            <mxPoint x="521" y="437" as="sourcePoint" />
            <mxPoint x="521" y="397" as="targetPoint" />
          </mxGeometry>
        </mxCell>
        <mxCell id="mQDXAv2by1Fk_RU90ocm-19" value="" style="rounded=0;whiteSpace=wrap;html=1;" vertex="1" parent="1">
          <mxGeometry x="201" y="457" width="400" height="40" as="geometry" />
        </mxCell>
        <mxCell id="mQDXAv2by1Fk_RU90ocm-20" value="" style="endArrow=none;html=1;rounded=0;" edge="1" parent="1">
          <mxGeometry width="50" height="50" relative="1" as="geometry">
            <mxPoint x="281" y="497" as="sourcePoint" />
            <mxPoint x="281" y="457" as="targetPoint" />
          </mxGeometry>
        </mxCell>
        <mxCell id="mQDXAv2by1Fk_RU90ocm-21" value="" style="endArrow=none;html=1;rounded=0;" edge="1" parent="1">
          <mxGeometry width="50" height="50" relative="1" as="geometry">
            <mxPoint x="361" y="497" as="sourcePoint" />
            <mxPoint x="361" y="457" as="targetPoint" />
          </mxGeometry>
        </mxCell>
        <mxCell id="mQDXAv2by1Fk_RU90ocm-22" value="" style="endArrow=none;html=1;rounded=0;" edge="1" parent="1">
          <mxGeometry width="50" height="50" relative="1" as="geometry">
            <mxPoint x="441" y="497" as="sourcePoint" />
            <mxPoint x="441" y="457" as="targetPoint" />
          </mxGeometry>
        </mxCell>
        <mxCell id="mQDXAv2by1Fk_RU90ocm-23" value="" style="endArrow=none;html=1;rounded=0;" edge="1" parent="1">
          <mxGeometry width="50" height="50" relative="1" as="geometry">
            <mxPoint x="521" y="497" as="sourcePoint" />
            <mxPoint x="521" y="457" as="targetPoint" />
          </mxGeometry>
        </mxCell>
        <mxCell id="mQDXAv2by1Fk_RU90ocm-24" value="" style="rounded=0;whiteSpace=wrap;html=1;" vertex="1" parent="1">
          <mxGeometry x="201" y="517" width="400" height="40" as="geometry" />
        </mxCell>
        <mxCell id="mQDXAv2by1Fk_RU90ocm-25" value="" style="endArrow=none;html=1;rounded=0;" edge="1" parent="1">
          <mxGeometry width="50" height="50" relative="1" as="geometry">
            <mxPoint x="281" y="557" as="sourcePoint" />
            <mxPoint x="281" y="517" as="targetPoint" />
          </mxGeometry>
        </mxCell>
        <mxCell id="mQDXAv2by1Fk_RU90ocm-26" value="" style="endArrow=none;html=1;rounded=0;" edge="1" parent="1">
          <mxGeometry width="50" height="50" relative="1" as="geometry">
            <mxPoint x="361" y="557" as="sourcePoint" />
            <mxPoint x="361" y="517" as="targetPoint" />
          </mxGeometry>
        </mxCell>
        <mxCell id="mQDXAv2by1Fk_RU90ocm-27" value="" style="endArrow=none;html=1;rounded=0;" edge="1" parent="1">
          <mxGeometry width="50" height="50" relative="1" as="geometry">
            <mxPoint x="441" y="557" as="sourcePoint" />
            <mxPoint x="441" y="517" as="targetPoint" />
          </mxGeometry>
        </mxCell>
        <mxCell id="mQDXAv2by1Fk_RU90ocm-28" value="" style="endArrow=none;html=1;rounded=0;" edge="1" parent="1">
          <mxGeometry width="50" height="50" relative="1" as="geometry">
            <mxPoint x="521" y="557" as="sourcePoint" />
            <mxPoint x="521" y="517" as="targetPoint" />
          </mxGeometry>
        </mxCell>
        <mxCell id="mQDXAv2by1Fk_RU90ocm-29" value="" style="rounded=0;whiteSpace=wrap;html=1;" vertex="1" parent="1">
          <mxGeometry x="201" y="581.5" width="400" height="40" as="geometry" />
        </mxCell>
        <mxCell id="mQDXAv2by1Fk_RU90ocm-30" value="" style="endArrow=none;html=1;rounded=0;" edge="1" parent="1">
          <mxGeometry width="50" height="50" relative="1" as="geometry">
            <mxPoint x="281" y="621.5" as="sourcePoint" />
            <mxPoint x="281" y="581.5" as="targetPoint" />
          </mxGeometry>
        </mxCell>
        <mxCell id="mQDXAv2by1Fk_RU90ocm-31" value="" style="endArrow=none;html=1;rounded=0;" edge="1" parent="1">
          <mxGeometry width="50" height="50" relative="1" as="geometry">
            <mxPoint x="361" y="621.5" as="sourcePoint" />
            <mxPoint x="361" y="581.5" as="targetPoint" />
          </mxGeometry>
        </mxCell>
        <mxCell id="mQDXAv2by1Fk_RU90ocm-32" value="" style="endArrow=none;html=1;rounded=0;" edge="1" parent="1">
          <mxGeometry width="50" height="50" relative="1" as="geometry">
            <mxPoint x="441" y="621.5" as="sourcePoint" />
            <mxPoint x="441" y="581.5" as="targetPoint" />
          </mxGeometry>
        </mxCell>
        <mxCell id="mQDXAv2by1Fk_RU90ocm-33" value="" style="endArrow=none;html=1;rounded=0;" edge="1" parent="1">
          <mxGeometry width="50" height="50" relative="1" as="geometry">
            <mxPoint x="521" y="621.5" as="sourcePoint" />
            <mxPoint x="521" y="581.5" as="targetPoint" />
          </mxGeometry>
        </mxCell>
        <mxCell id="mQDXAv2by1Fk_RU90ocm-34" value="" style="rounded=0;whiteSpace=wrap;html=1;fillColor=#dae8fc;strokeColor=#6c8ebf;" vertex="1" parent="1">
          <mxGeometry x="201" y="337" width="80" height="40" as="geometry" />
        </mxCell>
        <mxCell id="mQDXAv2by1Fk_RU90ocm-35" value="" style="rounded=0;whiteSpace=wrap;html=1;fillColor=#dae8fc;strokeColor=#6c8ebf;" vertex="1" parent="1">
          <mxGeometry x="281" y="397" width="80" height="40" as="geometry" />
        </mxCell>
        <mxCell id="mQDXAv2by1Fk_RU90ocm-36" value="" style="rounded=0;whiteSpace=wrap;html=1;fillColor=#dae8fc;strokeColor=#6c8ebf;" vertex="1" parent="1">
          <mxGeometry x="361" y="457" width="80" height="40" as="geometry" />
        </mxCell>
        <mxCell id="mQDXAv2by1Fk_RU90ocm-37" value="" style="rounded=0;whiteSpace=wrap;html=1;fillColor=#dae8fc;strokeColor=#6c8ebf;" vertex="1" parent="1">
          <mxGeometry x="441" y="517" width="80" height="40" as="geometry" />
        </mxCell>
        <mxCell id="mQDXAv2by1Fk_RU90ocm-38" value="" style="rounded=0;whiteSpace=wrap;html=1;fillColor=#dae8fc;strokeColor=#6c8ebf;" vertex="1" parent="1">
          <mxGeometry x="521" y="582" width="80" height="40" as="geometry" />
        </mxCell>
        <mxCell id="mQDXAv2by1Fk_RU90ocm-39" value="" style="shape=curlyBracket;whiteSpace=wrap;html=1;rounded=1;labelPosition=left;verticalLabelPosition=middle;align=right;verticalAlign=middle;rotation=-180;strokeWidth=1;size=0.5;" vertex="1" parent="1">
          <mxGeometry x="750" y="332" width="20" height="272.66" as="geometry" />
        </mxCell>
        <mxCell id="mQDXAv2by1Fk_RU90ocm-40" value="" style="shape=curlyBracket;whiteSpace=wrap;html=1;rounded=1;labelPosition=left;verticalLabelPosition=middle;align=right;verticalAlign=middle;rotation=90;strokeWidth=1;size=0.5;" vertex="1" parent="1">
          <mxGeometry x="231" y="277" width="20" height="80" as="geometry" />
        </mxCell>
        <mxCell id="mQDXAv2by1Fk_RU90ocm-41" value="&lt;font style=&quot;font-size: 17px;&quot;&gt;&lt;b&gt;Validation Fold&lt;/b&gt;&lt;/font&gt;" style="text;html=1;align=center;verticalAlign=middle;whiteSpace=wrap;rounded=0;" vertex="1" parent="1">
          <mxGeometry x="173.5" y="267" width="135" height="30" as="geometry" />
        </mxCell>
        <mxCell id="mQDXAv2by1Fk_RU90ocm-42" value="&lt;font style=&quot;font-size: 17px;&quot;&gt;&lt;b&gt;Training Fold&lt;/b&gt;&lt;/font&gt;" style="text;html=1;align=center;verticalAlign=middle;whiteSpace=wrap;rounded=0;" vertex="1" parent="1">
          <mxGeometry x="344" y="267" width="160" height="30" as="geometry" />
        </mxCell>
        <mxCell id="mQDXAv2by1Fk_RU90ocm-43" value="" style="shape=flexArrow;endArrow=classic;html=1;rounded=0;endWidth=14.117647058823529;endSize=5.976470588235294;" edge="1" parent="1">
          <mxGeometry width="50" height="50" relative="1" as="geometry">
            <mxPoint x="827" y="197" as="sourcePoint" />
            <mxPoint x="517" y="197.33" as="targetPoint" />
            <Array as="points">
              <mxPoint x="731.25" y="198.12" />
            </Array>
          </mxGeometry>
        </mxCell>
        <mxCell id="mQDXAv2by1Fk_RU90ocm-79" value="&lt;span style=&quot;font-size: 17px;&quot;&gt;Iteration 1&lt;/span&gt;" style="text;html=1;align=center;verticalAlign=middle;whiteSpace=wrap;rounded=0;" vertex="1" parent="1">
          <mxGeometry x="91" y="342" width="135" height="30" as="geometry" />
        </mxCell>
        <mxCell id="mQDXAv2by1Fk_RU90ocm-81" value="&lt;span style=&quot;font-size: 17px;&quot;&gt;Iteration 2&lt;/span&gt;" style="text;html=1;align=center;verticalAlign=middle;whiteSpace=wrap;rounded=0;" vertex="1" parent="1">
          <mxGeometry x="91" y="402" width="135" height="30" as="geometry" />
        </mxCell>
        <mxCell id="mQDXAv2by1Fk_RU90ocm-82" value="&lt;span style=&quot;font-size: 17px;&quot;&gt;Iteration 3&lt;/span&gt;" style="text;html=1;align=center;verticalAlign=middle;whiteSpace=wrap;rounded=0;" vertex="1" parent="1">
          <mxGeometry x="90" y="462" width="135" height="30" as="geometry" />
        </mxCell>
        <mxCell id="mQDXAv2by1Fk_RU90ocm-83" value="&lt;span style=&quot;font-size: 17px;&quot;&gt;Iteration 4&lt;/span&gt;" style="text;html=1;align=center;verticalAlign=middle;whiteSpace=wrap;rounded=0;" vertex="1" parent="1">
          <mxGeometry x="91" y="522" width="135" height="30" as="geometry" />
        </mxCell>
        <mxCell id="mQDXAv2by1Fk_RU90ocm-84" value="&lt;span style=&quot;font-size: 17px;&quot;&gt;Iteration 5&lt;/span&gt;" style="text;html=1;align=center;verticalAlign=middle;whiteSpace=wrap;rounded=0;" vertex="1" parent="1">
          <mxGeometry x="90" y="587" width="135" height="30" as="geometry" />
        </mxCell>
        <mxCell id="mQDXAv2by1Fk_RU90ocm-85" value="" style="shape=flexArrow;endArrow=classic;html=1;rounded=0;endWidth=15;endSize=6.87;" edge="1" parent="1">
          <mxGeometry width="50" height="50" relative="1" as="geometry">
            <mxPoint x="611" y="357" as="sourcePoint" />
            <mxPoint x="651" y="357" as="targetPoint" />
          </mxGeometry>
        </mxCell>
        <mxCell id="mQDXAv2by1Fk_RU90ocm-86" value="" style="shape=flexArrow;endArrow=classic;html=1;rounded=0;endWidth=15;endSize=6.87;" edge="1" parent="1">
          <mxGeometry width="50" height="50" relative="1" as="geometry">
            <mxPoint x="611" y="416.5" as="sourcePoint" />
            <mxPoint x="651" y="416.5" as="targetPoint" />
          </mxGeometry>
        </mxCell>
        <mxCell id="mQDXAv2by1Fk_RU90ocm-87" value="" style="shape=flexArrow;endArrow=classic;html=1;rounded=0;endWidth=15;endSize=6.87;" edge="1" parent="1">
          <mxGeometry width="50" height="50" relative="1" as="geometry">
            <mxPoint x="611" y="476" as="sourcePoint" />
            <mxPoint x="651" y="476" as="targetPoint" />
          </mxGeometry>
        </mxCell>
        <mxCell id="mQDXAv2by1Fk_RU90ocm-88" value="" style="shape=flexArrow;endArrow=classic;html=1;rounded=0;endWidth=15;endSize=6.87;" edge="1" parent="1">
          <mxGeometry width="50" height="50" relative="1" as="geometry">
            <mxPoint x="611" y="536.5" as="sourcePoint" />
            <mxPoint x="651" y="536.5" as="targetPoint" />
          </mxGeometry>
        </mxCell>
        <mxCell id="mQDXAv2by1Fk_RU90ocm-89" value="" style="shape=flexArrow;endArrow=classic;html=1;rounded=0;endWidth=15;endSize=6.87;" edge="1" parent="1">
          <mxGeometry width="50" height="50" relative="1" as="geometry">
            <mxPoint x="611" y="601" as="sourcePoint" />
            <mxPoint x="651" y="601" as="targetPoint" />
          </mxGeometry>
        </mxCell>
        <mxCell id="mQDXAv2by1Fk_RU90ocm-90" value="&lt;font style=&quot;font-size: 13px;&quot;&gt;Performance 1&lt;/font&gt;" style="text;html=1;align=center;verticalAlign=middle;whiteSpace=wrap;rounded=0;" vertex="1" parent="1">
          <mxGeometry x="644.5" y="342" width="112" height="30" as="geometry" />
        </mxCell>
        <mxCell id="mQDXAv2by1Fk_RU90ocm-111" value="" style="group" vertex="1" connectable="0" parent="1">
          <mxGeometry x="740" y="480" width="160" height="58" as="geometry" />
        </mxCell>
        <mxCell id="mQDXAv2by1Fk_RU90ocm-97" value="" style="shape=image;verticalLabelPosition=bottom;labelBackgroundColor=default;verticalAlign=top;aspect=fixed;imageAspect=0;image=data:image/png,iVBORw0KGgoAAAANSUhEUgAAAD8AAAA9CAIAAACV9SaDAAABS0lEQVRoBe3ZsQ2DMBAFUK9ARZsaiV0YgQHYgy3MEt4nYpJLEYm0+Pz/3aHYFQW23//QWE7y5JGejJeu9/t8vfveva6B/ufoekPM6t0jWtSt8Tfdb9s2juMLOtZ11bX+nVXRfc45pZRzfkOHkV5ESikppVJKy5bAuRXdf3cNFaBaH+oLaPRxAij1QQLo9RECNOndA7TqfQMA9I4BMHqvADC9SwCk3j4AWG8cAK+3DEDRmwVg6W0CEPUGAbh6dgC6XkSO45imCXikupai68/znOd53/drS+ADV0+lizBvH9h0ot6AztLb0Cl6Mzpeb0kH643pSL09HaZ3oWP0XnSA3pHeqvelN+nd6Xp9BLpSH4Su0cehV+tD0ev00eh1+mVZhmGAXte+7O5robe0v8Vajrncc22L7M7crr/TEued3j2n1zur9u7vtMR55wPHRoZ/SrqGdQAAAABJRU5ErkJggg==;" vertex="1" parent="mQDXAv2by1Fk_RU90ocm-111">
          <mxGeometry x="50" y="4" width="44.08" height="42.68" as="geometry" />
        </mxCell>
        <mxCell id="mQDXAv2by1Fk_RU90ocm-101" value="" style="group" vertex="1" connectable="0" parent="mQDXAv2by1Fk_RU90ocm-111">
          <mxGeometry x="20" y="3" width="60" height="45" as="geometry" />
        </mxCell>
        <mxCell id="mQDXAv2by1Fk_RU90ocm-98" value="&lt;font style=&quot;font-size: 14px;&quot;&gt;1&lt;/font&gt;" style="text;html=1;align=center;verticalAlign=middle;whiteSpace=wrap;rounded=0;" vertex="1" parent="mQDXAv2by1Fk_RU90ocm-101">
          <mxGeometry width="60" height="30" as="geometry" />
        </mxCell>
        <mxCell id="mQDXAv2by1Fk_RU90ocm-99" value="&lt;font style=&quot;font-size: 14px;&quot;&gt;5&lt;/font&gt;" style="text;html=1;align=center;verticalAlign=middle;whiteSpace=wrap;rounded=0;" vertex="1" parent="mQDXAv2by1Fk_RU90ocm-101">
          <mxGeometry x="1" y="19" width="60" height="26" as="geometry" />
        </mxCell>
        <mxCell id="mQDXAv2by1Fk_RU90ocm-100" value="" style="endArrow=none;html=1;rounded=0;" edge="1" parent="mQDXAv2by1Fk_RU90ocm-101">
          <mxGeometry width="50" height="50" relative="1" as="geometry">
            <mxPoint x="20" y="23" as="sourcePoint" />
            <mxPoint x="40" y="23" as="targetPoint" />
          </mxGeometry>
        </mxCell>
        <mxCell id="mQDXAv2by1Fk_RU90ocm-107" value="&lt;font style=&quot;font-size: 13px;&quot;&gt;&amp;nbsp; &amp;nbsp; =&lt;/font&gt;" style="text;html=1;align=center;verticalAlign=middle;whiteSpace=wrap;rounded=0;" vertex="1" parent="mQDXAv2by1Fk_RU90ocm-101">
          <mxGeometry x="-16" y="7" width="45" height="30" as="geometry" />
        </mxCell>
        <mxCell id="mQDXAv2by1Fk_RU90ocm-102" value="&lt;font style=&quot;font-size: 9px;&quot;&gt;i=1&lt;/font&gt;" style="text;html=1;align=center;verticalAlign=middle;whiteSpace=wrap;rounded=0;" vertex="1" parent="mQDXAv2by1Fk_RU90ocm-111">
          <mxGeometry x="57" y="25" width="60" height="30" as="geometry" />
        </mxCell>
        <mxCell id="mQDXAv2by1Fk_RU90ocm-104" value="&lt;font style=&quot;font-size: 13px;&quot;&gt;Performance i&lt;/font&gt;" style="text;html=1;align=center;verticalAlign=middle;whiteSpace=wrap;rounded=0;" vertex="1" parent="mQDXAv2by1Fk_RU90ocm-111">
          <mxGeometry x="78" y="12.5" width="90" height="30" as="geometry" />
        </mxCell>
        <mxCell id="mQDXAv2by1Fk_RU90ocm-103" value="&lt;font style=&quot;font-size: 9px;&quot;&gt;5&lt;/font&gt;" style="text;html=1;align=center;verticalAlign=middle;whiteSpace=wrap;rounded=0;" vertex="1" parent="mQDXAv2by1Fk_RU90ocm-111">
          <mxGeometry x="55" y="-3" width="60" height="30" as="geometry" />
        </mxCell>
        <mxCell id="mQDXAv2by1Fk_RU90ocm-113" value="" style="shape=curlyBracket;whiteSpace=wrap;html=1;rounded=1;labelPosition=left;verticalLabelPosition=middle;align=right;verticalAlign=middle;rotation=90;strokeWidth=1;size=0.5;" vertex="1" parent="1">
          <mxGeometry x="434" y="160" width="20" height="310" as="geometry" />
        </mxCell>
        <mxCell id="mQDXAv2by1Fk_RU90ocm-114" value="" style="shape=flexArrow;endArrow=classic;html=1;rounded=0;" edge="1" parent="1">
          <mxGeometry width="50" height="50" relative="1" as="geometry">
            <mxPoint x="419.38" y="135" as="sourcePoint" />
            <mxPoint x="419.38" y="175" as="targetPoint" />
          </mxGeometry>
        </mxCell>
        <mxCell id="mQDXAv2by1Fk_RU90ocm-120" value="" style="shape=flexArrow;endArrow=classic;html=1;rounded=0;" edge="1" parent="1">
          <mxGeometry width="50" height="50" relative="1" as="geometry">
            <mxPoint x="420.33" y="227" as="sourcePoint" />
            <mxPoint x="420.33" y="267" as="targetPoint" />
          </mxGeometry>
        </mxCell>
        <mxCell id="mQDXAv2by1Fk_RU90ocm-122" value="&lt;font style=&quot;font-size: 17px;&quot;&gt;&lt;b&gt;Hyperparameters&lt;/b&gt;&lt;/font&gt;" style="text;html=1;align=center;verticalAlign=middle;whiteSpace=wrap;rounded=0;" vertex="1" parent="1">
          <mxGeometry x="600" y="160" width="170" height="30" as="geometry" />
        </mxCell>
        <mxCell id="mQDXAv2by1Fk_RU90ocm-56" value="&lt;font style=&quot;font-size: 17px;&quot;&gt;Hyperparameter 2&lt;/font&gt;" style="text;html=1;align=center;verticalAlign=middle;whiteSpace=wrap;rounded=0;rotation=-90;" vertex="1" parent="1">
          <mxGeometry x="730" y="319" width="170" height="30" as="geometry" />
        </mxCell>
        <mxCell id="mQDXAv2by1Fk_RU90ocm-44" value="" style="endArrow=classic;html=1;rounded=0;startArrow=none;startFill=0;endFill=1;" edge="1" parent="1">
          <mxGeometry width="50" height="50" relative="1" as="geometry">
            <mxPoint x="842" y="407" as="sourcePoint" />
            <mxPoint x="842" y="247" as="targetPoint" />
          </mxGeometry>
        </mxCell>
        <mxCell id="mQDXAv2by1Fk_RU90ocm-45" value="" style="endArrow=none;html=1;rounded=0;startArrow=classic;startFill=1;" edge="1" parent="1">
          <mxGeometry width="50" height="50" relative="1" as="geometry">
            <mxPoint x="1082" y="407" as="sourcePoint" />
            <mxPoint x="842" y="407" as="targetPoint" />
          </mxGeometry>
        </mxCell>
        <mxCell id="mQDXAv2by1Fk_RU90ocm-46" value="" style="ellipse;whiteSpace=wrap;html=1;aspect=fixed;" vertex="1" parent="1">
          <mxGeometry x="872" y="357" width="20" height="20" as="geometry" />
        </mxCell>
        <mxCell id="mQDXAv2by1Fk_RU90ocm-47" value="" style="ellipse;whiteSpace=wrap;html=1;aspect=fixed;" vertex="1" parent="1">
          <mxGeometry x="952" y="357" width="20" height="20" as="geometry" />
        </mxCell>
        <mxCell id="mQDXAv2by1Fk_RU90ocm-48" value="" style="ellipse;whiteSpace=wrap;html=1;aspect=fixed;" vertex="1" parent="1">
          <mxGeometry x="1032" y="357" width="20" height="20" as="geometry" />
        </mxCell>
        <mxCell id="mQDXAv2by1Fk_RU90ocm-49" value="" style="ellipse;whiteSpace=wrap;html=1;aspect=fixed;" vertex="1" parent="1">
          <mxGeometry x="872" y="317" width="20" height="20" as="geometry" />
        </mxCell>
        <mxCell id="mQDXAv2by1Fk_RU90ocm-50" value="" style="ellipse;whiteSpace=wrap;html=1;aspect=fixed;" vertex="1" parent="1">
          <mxGeometry x="952" y="317" width="20" height="20" as="geometry" />
        </mxCell>
        <mxCell id="mQDXAv2by1Fk_RU90ocm-51" value="" style="ellipse;whiteSpace=wrap;html=1;aspect=fixed;" vertex="1" parent="1">
          <mxGeometry x="1032" y="317" width="20" height="20" as="geometry" />
        </mxCell>
        <mxCell id="mQDXAv2by1Fk_RU90ocm-52" value="" style="ellipse;whiteSpace=wrap;html=1;aspect=fixed;" vertex="1" parent="1">
          <mxGeometry x="1032" y="277" width="20" height="20" as="geometry" />
        </mxCell>
        <mxCell id="mQDXAv2by1Fk_RU90ocm-53" value="" style="ellipse;whiteSpace=wrap;html=1;aspect=fixed;" vertex="1" parent="1">
          <mxGeometry x="952" y="277" width="20" height="20" as="geometry" />
        </mxCell>
        <mxCell id="mQDXAv2by1Fk_RU90ocm-54" value="" style="ellipse;whiteSpace=wrap;html=1;aspect=fixed;" vertex="1" parent="1">
          <mxGeometry x="872" y="277" width="20" height="20" as="geometry" />
        </mxCell>
        <mxCell id="mQDXAv2by1Fk_RU90ocm-55" value="&lt;font style=&quot;font-size: 17px;&quot;&gt;Hyperparameter 1&lt;/font&gt;" style="text;html=1;align=center;verticalAlign=middle;whiteSpace=wrap;rounded=0;" vertex="1" parent="1">
          <mxGeometry x="877" y="427" width="170" height="30" as="geometry" />
        </mxCell>
        <mxCell id="mQDXAv2by1Fk_RU90ocm-57" value="" style="endArrow=none;html=1;rounded=0;" edge="1" parent="1">
          <mxGeometry width="50" height="50" relative="1" as="geometry">
            <mxPoint x="882" y="412" as="sourcePoint" />
            <mxPoint x="882" y="402" as="targetPoint" />
          </mxGeometry>
        </mxCell>
        <mxCell id="mQDXAv2by1Fk_RU90ocm-58" value="" style="endArrow=none;html=1;rounded=0;" edge="1" parent="1">
          <mxGeometry width="50" height="50" relative="1" as="geometry">
            <mxPoint x="961" y="412" as="sourcePoint" />
            <mxPoint x="961" y="402" as="targetPoint" />
          </mxGeometry>
        </mxCell>
        <mxCell id="mQDXAv2by1Fk_RU90ocm-59" value="" style="endArrow=none;html=1;rounded=0;" edge="1" parent="1">
          <mxGeometry width="50" height="50" relative="1" as="geometry">
            <mxPoint x="1041" y="413" as="sourcePoint" />
            <mxPoint x="1041" y="403" as="targetPoint" />
          </mxGeometry>
        </mxCell>
        <mxCell id="mQDXAv2by1Fk_RU90ocm-61" value="" style="endArrow=none;html=1;rounded=0;" edge="1" parent="1">
          <mxGeometry width="50" height="50" relative="1" as="geometry">
            <mxPoint x="846" y="326" as="sourcePoint" />
            <mxPoint x="837" y="326" as="targetPoint" />
          </mxGeometry>
        </mxCell>
        <mxCell id="mQDXAv2by1Fk_RU90ocm-62" value="" style="endArrow=none;html=1;rounded=0;" edge="1" parent="1">
          <mxGeometry width="50" height="50" relative="1" as="geometry">
            <mxPoint x="848" y="286" as="sourcePoint" />
            <mxPoint x="839" y="286" as="targetPoint" />
          </mxGeometry>
        </mxCell>
        <mxCell id="mQDXAv2by1Fk_RU90ocm-63" value="&lt;font style=&quot;font-size: 14px;&quot;&gt;a&lt;/font&gt;" style="text;html=1;align=center;verticalAlign=middle;whiteSpace=wrap;rounded=0;" vertex="1" parent="1">
          <mxGeometry x="852" y="412" width="60" height="30" as="geometry" />
        </mxCell>
        <mxCell id="mQDXAv2by1Fk_RU90ocm-64" value="&lt;font style=&quot;font-size: 14px;&quot;&gt;b&lt;/font&gt;" style="text;html=1;align=center;verticalAlign=middle;whiteSpace=wrap;rounded=0;" vertex="1" parent="1">
          <mxGeometry x="932" y="412" width="60" height="30" as="geometry" />
        </mxCell>
        <mxCell id="mQDXAv2by1Fk_RU90ocm-65" value="&lt;font style=&quot;font-size: 14px;&quot;&gt;c&lt;/font&gt;" style="text;html=1;align=center;verticalAlign=middle;whiteSpace=wrap;rounded=0;" vertex="1" parent="1">
          <mxGeometry x="1012" y="412" width="60" height="30" as="geometry" />
        </mxCell>
        <mxCell id="mQDXAv2by1Fk_RU90ocm-66" value="&lt;font style=&quot;font-size: 14px;&quot;&gt;x&lt;/font&gt;" style="text;html=1;align=center;verticalAlign=middle;whiteSpace=wrap;rounded=0;" vertex="1" parent="1">
          <mxGeometry x="822" y="353" width="60" height="30" as="geometry" />
        </mxCell>
        <mxCell id="mQDXAv2by1Fk_RU90ocm-69" value="&lt;font style=&quot;font-size: 14px;&quot;&gt;y&lt;/font&gt;" style="text;html=1;align=center;verticalAlign=middle;whiteSpace=wrap;rounded=0;" vertex="1" parent="1">
          <mxGeometry x="836" y="307" width="32" height="30" as="geometry" />
        </mxCell>
        <mxCell id="mQDXAv2by1Fk_RU90ocm-70" value="&lt;font style=&quot;font-size: 14px;&quot;&gt;z&lt;/font&gt;" style="text;html=1;align=center;verticalAlign=middle;whiteSpace=wrap;rounded=0;" vertex="1" parent="1">
          <mxGeometry x="836" y="261.5" width="36" height="45" as="geometry" />
        </mxCell>
        <mxCell id="mQDXAv2by1Fk_RU90ocm-71" value="" style="endArrow=classic;html=1;rounded=0;" edge="1" parent="1">
          <mxGeometry width="50" height="50" relative="1" as="geometry">
            <mxPoint x="892" y="285.82" as="sourcePoint" />
            <mxPoint x="952" y="285.82" as="targetPoint" />
          </mxGeometry>
        </mxCell>
        <mxCell id="mQDXAv2by1Fk_RU90ocm-72" value="" style="endArrow=classic;html=1;rounded=0;" edge="1" parent="1">
          <mxGeometry width="50" height="50" relative="1" as="geometry">
            <mxPoint x="972" y="286.40999999999997" as="sourcePoint" />
            <mxPoint x="1032" y="286.40999999999997" as="targetPoint" />
          </mxGeometry>
        </mxCell>
        <mxCell id="mQDXAv2by1Fk_RU90ocm-73" value="" style="endArrow=classic;html=1;rounded=0;entryX=1;entryY=0;entryDx=0;entryDy=0;" edge="1" parent="1" target="mQDXAv2by1Fk_RU90ocm-49">
          <mxGeometry width="50" height="50" relative="1" as="geometry">
            <mxPoint x="1032" y="287" as="sourcePoint" />
            <mxPoint x="937" y="317" as="targetPoint" />
          </mxGeometry>
        </mxCell>
        <mxCell id="mQDXAv2by1Fk_RU90ocm-74" value="" style="endArrow=classic;html=1;rounded=0;" edge="1" parent="1">
          <mxGeometry width="50" height="50" relative="1" as="geometry">
            <mxPoint x="892" y="326.40999999999997" as="sourcePoint" />
            <mxPoint x="952" y="326.40999999999997" as="targetPoint" />
          </mxGeometry>
        </mxCell>
        <mxCell id="mQDXAv2by1Fk_RU90ocm-75" value="" style="endArrow=classic;html=1;rounded=0;" edge="1" parent="1">
          <mxGeometry width="50" height="50" relative="1" as="geometry">
            <mxPoint x="892" y="366.40999999999997" as="sourcePoint" />
            <mxPoint x="952" y="366.40999999999997" as="targetPoint" />
          </mxGeometry>
        </mxCell>
        <mxCell id="mQDXAv2by1Fk_RU90ocm-76" value="" style="endArrow=classic;html=1;rounded=0;" edge="1" parent="1">
          <mxGeometry width="50" height="50" relative="1" as="geometry">
            <mxPoint x="972" y="366.40999999999997" as="sourcePoint" />
            <mxPoint x="1032" y="366.40999999999997" as="targetPoint" />
          </mxGeometry>
        </mxCell>
        <mxCell id="mQDXAv2by1Fk_RU90ocm-77" value="" style="endArrow=classic;html=1;rounded=0;" edge="1" parent="1">
          <mxGeometry width="50" height="50" relative="1" as="geometry">
            <mxPoint x="972" y="326.40999999999997" as="sourcePoint" />
            <mxPoint x="1032" y="326.40999999999997" as="targetPoint" />
          </mxGeometry>
        </mxCell>
        <mxCell id="mQDXAv2by1Fk_RU90ocm-78" value="" style="endArrow=classic;html=1;rounded=0;entryX=1;entryY=0;entryDx=0;entryDy=0;" edge="1" parent="1">
          <mxGeometry width="50" height="50" relative="1" as="geometry">
            <mxPoint x="1032" y="327" as="sourcePoint" />
            <mxPoint x="889" y="360" as="targetPoint" />
          </mxGeometry>
        </mxCell>
        <mxCell id="mQDXAv2by1Fk_RU90ocm-127" value="&lt;b style=&quot;&quot;&gt;&lt;font style=&quot;font-size: 15px;&quot;&gt;Performance&lt;/font&gt;&lt;/b&gt;" style="text;html=1;align=center;verticalAlign=middle;whiteSpace=wrap;rounded=0;" vertex="1" parent="1">
          <mxGeometry x="770" y="457" width="136.5" height="30" as="geometry" />
        </mxCell>
        <mxCell id="mQDXAv2by1Fk_RU90ocm-131" value="" style="endArrow=none;html=1;rounded=0;" edge="1" parent="1">
          <mxGeometry width="50" height="50" relative="1" as="geometry">
            <mxPoint x="845" y="370" as="sourcePoint" />
            <mxPoint x="836" y="370" as="targetPoint" />
          </mxGeometry>
        </mxCell>
        <mxCell id="mQDXAv2by1Fk_RU90ocm-138" value="&lt;font style=&quot;font-size: 13px;&quot;&gt;Performance 2&lt;/font&gt;" style="text;html=1;align=center;verticalAlign=middle;whiteSpace=wrap;rounded=0;" vertex="1" parent="1">
          <mxGeometry x="644.5" y="402" width="112" height="30" as="geometry" />
        </mxCell>
        <mxCell id="mQDXAv2by1Fk_RU90ocm-139" value="&lt;font style=&quot;font-size: 13px;&quot;&gt;Performance 3&lt;/font&gt;" style="text;html=1;align=center;verticalAlign=middle;whiteSpace=wrap;rounded=0;" vertex="1" parent="1">
          <mxGeometry x="644.5" y="462" width="112" height="30" as="geometry" />
        </mxCell>
        <mxCell id="mQDXAv2by1Fk_RU90ocm-140" value="&lt;font style=&quot;font-size: 13px;&quot;&gt;Performance 4&lt;/font&gt;" style="text;html=1;align=center;verticalAlign=middle;whiteSpace=wrap;rounded=0;" vertex="1" parent="1">
          <mxGeometry x="644.5" y="522" width="112" height="30" as="geometry" />
        </mxCell>
        <mxCell id="mQDXAv2by1Fk_RU90ocm-141" value="&lt;font style=&quot;font-size: 13px;&quot;&gt;Performance 5&lt;/font&gt;" style="text;html=1;align=center;verticalAlign=middle;whiteSpace=wrap;rounded=0;" vertex="1" parent="1">
          <mxGeometry x="644.5" y="584" width="112" height="30" as="geometry" />
        </mxCell>
      </root>
    </mxGraphModel>
  </diagram>
</mxfile>
